<?xml version="1.0" encoding="utf-8"?>
<!-- Generator: Adobe Illustrator 16.0.0, SVG Export Plug-In . SVG Version: 6.00 Build 0)  -->
<!DOCTYPE svg PUBLIC "-//W3C//DTD SVG 1.1//EN" "http://www.w3.org/Graphics/SVG/1.1/DTD/svg11.dtd">
<svg version="1.1" id="Layer_1" xmlns="http://www.w3.org/2000/svg" xmlns:xlink="http://www.w3.org/1999/xlink" x="0px" y="0px"
	 width="700px" height="1000px" viewBox="0 0 700 1000" enable-background="new 0 0 700 1000" xml:space="preserve">
<g>
	<g>
		<path fill="#D50000" d="M395.733,590.922c-113.56,23.238-224.84-50.24-248.078-163.831
			c-23.238-113.56,50.231-224.846,163.771-248.103c113.608-23.243,224.89,50.26,248.127,163.811
			C582.782,456.364,509.322,567.684,395.733,590.922z M317.53,208.712c-97.154,19.876-160.075,115.118-140.166,212.305
			c19.852,97.164,115.112,160.027,212.264,140.176c97.204-19.881,160.076-115.123,140.205-212.315
			C509.935,251.72,414.731,188.831,317.53,208.712z"/>
	</g>
	<g>
		<path fill="#D50000" d="M362.065,450.105c-19.367,3.959-39.092,0.126-55.626-10.731l-5.229-3.483
			c-10.585-6.981-33.619-22.205-33.619-22.205l-39.306-25.955c-9.771-6.423-21.424-8.693-32.833-6.345
			c-11.46,2.328-21.259,9.004-27.731,18.745l-24.344-17.203c10.877-16.48,26.615-27.294,45.981-31.253
			c19.396-3.973,39.141-0.164,55.616,10.717l58.75,38.825c9.771,6.428,15.612,10.31,19.28,13.046l0.166-0.224
			c9.731,6.423,21.384,8.689,32.842,6.336c11.411-2.348,21.26-8.98,27.692-18.722l7.412-11.187l25.305,16.732l-7.374,11.163
			C398.12,434.867,381.479,446.138,362.065,450.105z"/>
	</g>
	<g>
		<path fill="#D50000" d="M517.853,418.242c-19.407,3.978-39.142,0.146-55.655-10.755l-58.76-38.772
			c-9.722-6.448-15.622-10.342-19.279-13.079l-0.174,0.243c-9.713-6.442-21.386-8.708-32.796-6.36
			c-11.45,2.354-21.297,8.984-27.73,18.75l-7.374,11.183l-25.295-16.723l7.374-11.192c10.877-16.509,27.564-27.794,46.932-31.748
			c19.366-3.954,39.14-0.122,55.625,10.755l5.269,3.474c10.595,6.996,33.62,22.19,33.62,22.19l39.306,25.983
			c9.731,6.424,21.394,8.665,32.843,6.341c11.411-2.353,21.259-9.019,27.73-18.751l24.062,17.145
			C552.675,403.426,537.219,414.264,517.853,418.242z"/>
	</g>
	<g>
		<g>
			<path fill="#D50000" d="M527.292,798.777h-18.047v-52.783c0-29.097,23.694-52.77,52.774-52.77v18.023
				c-19.165,0-34.728,15.574-34.728,34.746V798.777z"/>
		</g>
		<g>
			<g>
				<path fill="#D50000" d="M313.319,798.777c-29.128,0-52.812-23.702-52.812-52.783c0-29.097,23.684-52.77,52.812-52.77
					c29.098,0,52.743,23.673,52.743,52.77C366.062,775.075,342.417,798.777,313.319,798.777z M313.319,711.248
					c-19.192,0-34.766,15.574-34.766,34.746c0,19.162,15.573,34.736,34.766,34.736c19.123,0,34.696-15.574,34.696-34.736
					C348.015,726.822,332.442,711.248,313.319,711.248z"/>
			</g>
			<g>
				<rect x="260.507" y="745.994" fill="#D50000" width="18.046" height="79.31"/>
			</g>
		</g>
		<g>
			<path fill="#D50000" d="M188.94,798.777c-29.137,0-52.783-23.702-52.783-52.783c0-29.097,23.646-52.77,52.783-52.77
				c29.089,0,52.773,23.673,52.773,52.77C241.713,775.075,218.029,798.777,188.94,798.777z M188.94,711.248
				c-19.163,0-34.774,15.574-34.774,34.746c0,19.162,15.612,34.736,34.774,34.736c19.163,0,34.735-15.574,34.735-34.736
				C223.675,726.822,208.103,711.248,188.94,711.248z"/>
		</g>
		<g>
			<g>
				<path fill="#D50000" d="M490.46,755.016h-89.409v-9.021h-16.146c0-29.097,23.686-52.77,52.774-52.77s52.781,23.673,52.781,52.77
					V755.016z M404.137,736.98h67.074c-3.948-14.786-17.505-25.732-33.532-25.732C421.648,711.248,408.095,722.194,404.137,736.98z"
					/>
			</g>
			<g>
				<path fill="#D50000" d="M437.679,798.777c-14.099,0-27.362-5.501-37.326-15.477c-9.975-9.963-15.448-23.207-15.448-37.307
					h18.038c0,9.267,3.59,17.989,10.179,24.577c6.55,6.55,15.242,10.159,24.558,10.159c9.265,0,17.998-3.609,24.547-10.169
					l12.739,12.739C464.991,793.276,451.767,798.777,437.679,798.777z"/>
			</g>
		</g>
	</g>
</g>
</svg>
